<svg width="458" height="100" viewBox="0 0 458 100" fill="none" xmlns="http://www.w3.org/2000/svg">
<path d="M122.599 88C120.209 88 118.049 87.5023 116.119 86.5069C114.211 85.5115 112.708 84.1455 111.612 82.4088C110.537 80.651 110 78.6814 110 76.5C110 74.3186 110.537 72.3596 111.612 70.6229C112.708 68.8651 114.211 67.4885 116.119 66.4931C118.049 65.4977 120.209 65 122.599 65C124.99 65 127.139 65.4977 129.047 66.4931C130.955 67.4885 132.457 68.8651 133.554 70.6229C134.65 72.3596 135.199 74.3186 135.199 76.5C135.199 78.6814 134.65 80.651 133.554 82.4088C132.457 84.1455 130.955 85.5115 129.047 86.5069C127.139 87.5023 124.99 88 122.599 88ZM122.599 83.616C123.959 83.616 125.187 83.3195 126.284 82.7265C127.38 82.1123 128.236 81.2652 128.85 80.1851C129.486 79.105 129.804 77.8766 129.804 76.5C129.804 75.1234 129.486 73.895 128.85 72.8149C128.236 71.7348 127.38 70.8982 126.284 70.3052C125.187 69.6911 123.959 69.384 122.599 69.384C121.24 69.384 120.011 69.6911 118.915 70.3052C117.818 70.8982 116.952 71.7348 116.316 72.8149C115.702 73.895 115.395 75.1234 115.395 76.5C115.395 77.8766 115.702 79.105 116.316 80.1851C116.952 81.2652 117.818 82.1123 118.915 82.7265C120.011 83.3195 121.24 83.616 122.599 83.616Z" fill="#FD397A"/>
<path d="M178.877 87.6188L174.436 81.424H169.534V87.6188H164.205V65.3812H174.173C176.212 65.3812 177.978 65.7095 179.469 66.366C180.982 67.0226 182.144 67.9544 182.956 69.1616C183.767 70.3688 184.173 71.7983 184.173 73.4503C184.173 75.1022 183.756 76.5318 182.923 77.7389C182.112 78.925 180.949 79.8356 179.436 80.471L184.601 87.6188H178.877ZM178.778 73.4503C178.778 72.2007 178.361 71.2477 177.528 70.5912C176.695 69.9134 175.478 69.5746 173.877 69.5746H169.534V77.326H173.877C175.478 77.326 176.695 76.9871 177.528 76.3094C178.361 75.6317 178.778 74.6786 178.778 73.4503Z" fill="#FD397A"/>
<path d="M213.397 65.3812H218.726V87.6188H213.397V65.3812Z" fill="#FD397A"/>
<path d="M264.752 76.1506H269.621V85.1727C268.371 86.0833 266.923 86.7822 265.278 87.2693C263.634 87.7564 261.978 88 260.311 88C257.921 88 255.771 87.5129 253.863 86.5387C251.955 85.5433 250.453 84.1773 249.356 82.4406C248.282 80.6828 247.745 78.7026 247.745 76.5C247.745 74.2974 248.282 72.3278 249.356 70.5912C250.453 68.8333 251.966 67.4673 253.896 66.4931C255.826 65.4977 257.997 65 260.41 65C262.427 65 264.259 65.3283 265.903 65.9848C267.548 66.6413 268.93 67.5944 270.048 68.8439L266.627 71.8936C264.982 70.2205 262.998 69.384 260.673 69.384C259.203 69.384 257.899 69.6805 256.758 70.2735C255.618 70.8665 254.73 71.703 254.094 72.7831C253.458 73.8633 253.14 75.1022 253.14 76.5C253.14 77.8766 253.458 79.105 254.094 80.1851C254.73 81.2652 255.607 82.1123 256.725 82.7265C257.866 83.3195 259.16 83.616 260.607 83.616C262.142 83.616 263.524 83.2983 264.752 82.663V76.1506Z" fill="#FD397A"/>
<path d="M299.572 65.3812H304.902V87.6188H299.572V65.3812Z" fill="#FD397A"/>
<path d="M356.487 65.3812V87.6188H352.112L340.631 74.1174V87.6188H335.368V65.3812H339.776L351.224 78.8826V65.3812H356.487Z" fill="#FD397A"/>
<path d="M402.102 82.8536H391.411L389.371 87.6188H383.91L394.174 65.3812H399.437L409.734 87.6188H404.141L402.102 82.8536ZM400.424 78.9461L396.773 70.4323L393.121 78.9461H400.424Z" fill="#FD397A"/>
<path d="M437.124 65.3812H442.453V83.4254H454V87.6188H437.124V65.3812Z" fill="#FD397A"/>
<path d="M145.98 33.36C148.78 34.2467 150.973 35.74 152.56 37.84C154.147 39.8933 154.94 42.4367 154.94 45.47C154.94 49.7633 153.26 53.0767 149.9 55.41C146.587 57.6967 141.733 58.84 135.34 58.84H110V9.84H133.94C139.913 9.84 144.487 10.9833 147.66 13.27C150.88 15.5567 152.49 18.66 152.49 22.58C152.49 24.96 151.907 27.0833 150.74 28.95C149.62 30.8167 148.033 32.2867 145.98 33.36ZM121.27 18.38V29.93H132.54C135.34 29.93 137.463 29.44 138.91 28.46C140.357 27.48 141.08 26.0333 141.08 24.12C141.08 22.2067 140.357 20.7833 138.91 19.85C137.463 18.87 135.34 18.38 132.54 18.38H121.27ZM134.5 50.3C137.487 50.3 139.727 49.81 141.22 48.83C142.76 47.85 143.53 46.3333 143.53 44.28C143.53 40.22 140.52 38.19 134.5 38.19H121.27V50.3H134.5Z" fill="#292A3B"/>
<path d="M165.625 9.84H176.965V49.6H201.535V58.84H165.625V9.84Z" fill="#292A3B"/>
<path d="M232.881 59.68C227.795 59.68 223.198 58.5833 219.091 56.39C215.031 54.1967 211.835 51.1867 209.501 47.36C207.215 43.4867 206.071 39.1467 206.071 34.34C206.071 29.5333 207.215 25.2167 209.501 21.39C211.835 17.5167 215.031 14.4833 219.091 12.29C223.198 10.0967 227.795 9 232.881 9C237.968 9 242.541 10.0967 246.601 12.29C250.661 14.4833 253.858 17.5167 256.191 21.39C258.525 25.2167 259.691 29.5333 259.691 34.34C259.691 39.1467 258.525 43.4867 256.191 47.36C253.858 51.1867 250.661 54.1967 246.601 56.39C242.541 58.5833 237.968 59.68 232.881 59.68ZM232.881 50.02C235.775 50.02 238.388 49.3667 240.721 48.06C243.055 46.7067 244.875 44.84 246.181 42.46C247.535 40.08 248.211 37.3733 248.211 34.34C248.211 31.3067 247.535 28.6 246.181 26.22C244.875 23.84 243.055 21.9967 240.721 20.69C238.388 19.3367 235.775 18.66 232.881 18.66C229.988 18.66 227.375 19.3367 225.041 20.69C222.708 21.9967 220.865 23.84 219.511 26.22C218.205 28.6 217.551 31.3067 217.551 34.34C217.551 37.3733 218.205 40.08 219.511 42.46C220.865 44.84 222.708 46.7067 225.041 48.06C227.375 49.3667 229.988 50.02 232.881 50.02Z" fill="#292A3B"/>
<path d="M303.424 33.57H313.784V53.45C311.124 55.4567 308.044 56.9967 304.544 58.07C301.044 59.1433 297.52 59.68 293.974 59.68C288.887 59.68 284.314 58.6067 280.254 56.46C276.194 54.2667 272.997 51.2567 270.664 47.43C268.377 43.5567 267.234 39.1933 267.234 34.34C267.234 29.4867 268.377 25.1467 270.664 21.32C272.997 17.4467 276.217 14.4367 280.324 12.29C284.43 10.0967 289.05 9 294.184 9C298.477 9 302.374 9.72333 305.874 11.17C309.374 12.6167 312.314 14.7167 314.694 17.47L307.414 24.19C303.914 20.5033 299.69 18.66 294.744 18.66C291.617 18.66 288.84 19.3133 286.414 20.62C283.987 21.9267 282.097 23.77 280.744 26.15C279.39 28.53 278.714 31.26 278.714 34.34C278.714 37.3733 279.39 40.08 280.744 42.46C282.097 44.84 283.964 46.7067 286.344 48.06C288.77 49.3667 291.524 50.02 294.604 50.02C297.87 50.02 300.81 49.32 303.424 47.92V33.57Z" fill="#292A3B"/>
<path d="M364.358 49.74V58.84H326.418V9.84H363.448V18.94H337.688V29.58H360.438V38.4H337.688V49.74H364.358Z" fill="#292A3B"/>
<path d="M375.48 9.84H386.82V49.6H411.39V58.84H375.48V9.84Z" fill="#292A3B"/>
<path d="M438.288 41.48V58.84H426.948V41.34L407.978 9.84H420.018L433.108 31.61L446.198 9.84H457.328L438.288 41.48Z" fill="#292A3B"/>
<path d="M97 44.5L83 30L41 73.5V88H55L97 44.5Z" fill="#FD397A"/>
<rect x="7" y="9" width="64" height="9.35526" fill="#292A3B"/>
<rect x="7" y="31.8684" width="40" height="9.35526" fill="#292A3B"/>
<rect x="7" y="55.7763" width="24" height="9.35526" fill="#292A3B"/>
<rect x="7" y="78.6447" width="8" height="9.35526" fill="#292A3B"/>
</svg>
